
<svg width="191px" height="159px" viewBox="0 0 191 159" version="1.1" xmlns="http://www.w3.org/2000/svg" xmlns:xlink="http://www.w3.org/1999/xlink">
  <g id="Page-1" stroke="none" stroke-width="1" fill="none" fill-rule="evenodd">
    <g id="iPhone-8">
      <g id="logo">
        <g id="left-foot" transform="translate(118.935248, 129.097114)" stroke="#979797" stroke-width="3">
          <path d="M3.11894574,11.7469766 L23.663869,22.2648453 L29.957919,18.4237236 L18.1149005,2.96389592 L3.11894574,11.7469766 Z" id="Path-10" fill="#FFFFFF"></path>
          <path d="M3.04504178,12.9044877 C2.41180973,13.927684 2.48452071,14.0272908 3.20345256,14.2239114 C4.02247522,14.4479058 5.13521152,14.1472153 6.8254548,13.199693 C7.90181589,12.5963029 12.3865417,9.64160339 12.9572385,9.28583927 C15.0779913,7.96379266 17.0944961,6.46744061 18.6068376,5.12172781 C19.2945868,4.50975433 19.8433051,3.95845227 20.2037199,3.52298363 C20.315872,3.38747662 20.4043577,3.26955012 20.4671104,3.17501557 C20.3465955,2.88713163 19.8802253,2.59817935 18.8290115,2.35991414 L3.04504178,12.9044877 Z" id="Path-11"></path>
          <circle id="Oval" fill="#D8D8D8" cx="29" cy="22.8353883" r="5.5"></circle>
        </g>
        <g id="right-foot" transform="translate(56.000000, 144.000000) scale(-1, 1) translate(-56.000000, -144.000000) translate(38.000000, 129.000000)" stroke="#979797" stroke-width="3">
          <path d="M3.11894574,11.7469766 L23.663869,22.2648453 L29.957919,18.4237236 L18.1149005,2.96389592 L3.11894574,11.7469766 Z" id="Path-10" fill="#FFFFFF"></path>
          <path d="M3.04504178,12.9044877 C2.41180973,13.927684 2.48452071,14.0272908 3.20345256,14.2239114 C4.02247522,14.4479058 5.13521152,14.1472153 6.8254548,13.199693 C7.90181589,12.5963029 12.3865417,9.64160339 12.9572385,9.28583927 C15.0779913,7.96379266 17.0944961,6.46744061 18.6068376,5.12172781 C19.2945868,4.50975433 19.8433051,3.95845227 20.2037199,3.52298363 C20.315872,3.38747662 20.4043577,3.26955012 20.4671104,3.17501557 C20.3465955,2.88713163 19.8802253,2.59817935 18.8290115,2.35991414 L3.04504178,12.9044877 Z" id="Path-11"></path>
          <circle id="Oval" fill="#D8D8D8" cx="29" cy="22.8353883" r="5.5"></circle>
        </g>
        <g id="body" transform="translate(45.935248, 61.932503)">
          <path d="M49.7087305,83.7817758 C79.4716898,83.7817758 99.9052948,68.7363112 99.9052948,43.525121 C99.9052948,17.9196315 79.084513,1.5 49.9665105,1.5 C21.2071663,1.5 1.5,17.6776164 1.5,43.525121 C1.5,69.0455308 20.4582446,83.7817758 49.7087305,83.7817758 Z" id="Oval" stroke="#979797" stroke-width="3" fill="#FFFFFF"></path>
          <g id="Group" transform="translate(22.000000, 31.000000)" stroke="#979797" stroke-width="3">
            <circle id="Oval" cx="10.5" cy="10.5" r="9"></circle>
            <circle id="Oval" fill="#D8D8D8" cx="8" cy="8" r="4.5"></circle>
            <circle id="Oval" fill="#D8D8D8" cx="29" cy="25" r="4.5"></circle>
            <circle id="Oval" cx="47.5" cy="10.5" r="9"></circle>
            <circle id="Oval" fill="#D8D8D8" cx="45" cy="8" r="4.5"></circle>
            <path d="M40.7213103,35.5471438 L32.2275187,28.2837553 L40.7213103,35.5471438 L41.3121181,34.8674972 L42.1654782,36.9343249 L40,36.3769164 L40.7213103,35.5471438 Z" id="Combined-Shape"></path>
            <path d="M15.1149954,38.4552846 L25.5537774,28.6744765 L15.1149954,38.4552846 L15.7443686,39.1302046 L13.5996628,39.7628477 L14.3803719,37.6674972 L15.1149954,38.4552846 Z" id="Combined-Shape"></path>
          </g>
          <circle id="Oval" fill="#D8D8D8" cx="10.5" cy="45.5" r="2.5"></circle>
          <circle id="Oval" fill="#D8D8D8" cx="91.5" cy="44.5" r="2.5"></circle>
          <circle id="Oval" fill="#D8D8D8" cx="51.5" cy="76.5" r="2.5"></circle>
        </g>
        <g id="hat" stroke="#979797" stroke-width="3">
          <path d="M99.6439789,94.9444319 C122.760318,94.9444319 145.512798,91.8642126 162.971212,86.6978017 C179.256539,81.8785384 188.978738,75.713461 188.978738,70.7401455 C188.978738,65.6859102 178.564354,58.4301693 162.058664,52.543829 C143.912481,46.0724474 121.327698,42.1095333 99.6439789,42.1095333 C53.9160516,42.1095333 1.5,57.9815596 1.5,70.7401455 C1.5,82.9361133 49.8378279,94.9444319 99.6439789,94.9444319 Z" id="Path-8" fill="#D8D8D8"></path>
          <path d="M41.327413,10.6425844 C41.3296402,10.6865953 41.3355253,10.7442139 41.3462227,10.814085 C41.3929321,11.1191713 41.5142361,11.5470074 41.7117073,12.0847623 C42.1043463,13.1539994 42.768607,14.5880544 43.763288,16.5380135 C44.4647525,17.9131553 49.3861797,27.1119387 50.935854,30.1562729 C52.954217,34.1213455 54.6273301,37.6760776 56.041725,41.0832798 C58.1009227,46.0437779 59.6584373,51.1091112 61.0943177,57.0168363 C61.291239,57.827041 63.2412918,66.4631947 63.7034341,67.9888734 C64.0198314,69.0334019 64.3047953,69.6784914 64.4985417,69.8966311 C66.2733993,71.894949 82.2982865,74.2401455 98.2747559,74.2401455 C114.25956,74.2401455 126.035363,72.2814719 128.153521,69.8966311 C128.380799,69.6407376 129.26657,67.5938273 130.930603,63.4268538 C131.163986,62.8424286 132.017734,60.6985216 132.115404,60.4535513 C132.617522,59.1941677 133.023564,58.180469 133.429694,57.1743404 C134.48331,54.5641583 135.428399,52.2782403 136.361227,50.1000792 C137.315384,47.8721151 138.229925,45.8212968 139.119202,43.9270149 C140.075359,41.8902708 141.137335,39.7169305 142.340312,37.3246525 C142.941334,36.1294399 143.575602,34.8833663 144.267782,33.5362329 C144.926078,32.2550441 145.597937,30.9573393 146.488865,29.2436204 C146.747401,28.7463224 147.035226,28.1931079 147.572902,27.159737 C148.006284,26.3266453 148.320956,25.7211045 148.625831,25.1332093 C150.280231,21.9430092 151.388396,19.7637923 152.322957,17.8418607 C153.436448,15.5519586 154.218941,13.7903045 154.694594,12.4803318 C154.936744,11.8134375 155.093447,11.2780784 155.163729,10.8892314 C155.186048,10.7657461 155.198006,10.6657319 155.201487,10.5930093 C154.182807,8.93967686 147.363524,6.55208082 137.393908,4.74370888 C126.173925,2.70853477 112.157539,1.5 98.2493843,1.5 C84.3619499,1.5 70.4070527,2.71214344 59.2033237,4.75571516 C49.2589434,6.56958037 42.4236674,8.95830841 41.327413,10.6425844 Z" id="Path-3" fill="#D8D8D8"></path>
          <path d="M137.572943,47.3181466 C121.044422,50.1050978 106.935754,51.5 95.239369,51.5 C83.7227965,51.5 71.4552992,50.1478749 58.4365661,47.4458536 C59.5251904,50.6315279 60.5023761,53.9305674 61.4102483,57.3891372 L61.7944313,58.590983 C72.8333631,61.5109798 84.2125556,62.9710845 95.9352484,62.9710845 C107.423401,62.9710845 119.708911,61.5687972 132.79146,58.761733 C134.636635,54.1576312 136.097669,50.6389174 137.57295,47.3181455 Z M138.047372,46.2581572 C138.056702,46.2374661 138.066034,46.2167791 138.075369,46.1960959 L138.025172,46.3222591 L138.047372,46.2581572 Z" id="Combined-Shape" fill="#FFFFFF"></path>
          <path d="M155.20924,10.605766 C154.217904,8.95197613 147.389194,6.55673712 137.393908,4.74370888 C126.173925,2.70853477 112.157539,1.5 98.2493843,1.5 C84.3619499,1.5 70.4070527,2.71214344 59.2033237,4.75571516 C49.4587606,6.53313351 42.6996116,8.8625448 41.4004257,10.5402127 C60.3601374,14.6835749 79.3504041,16.7549801 98.3730074,16.7549801 C117.294895,16.7549801 136.239741,14.70545 155.20924,10.605766 Z" id="Combined-Shape"></path>
        </g>
      </g>
    </g>
  </g>
</svg>
