
<svg width="352px" height="291px" viewBox="0 0 352 291" version="1.1" xmlns="http://www.w3.org/2000/svg" xmlns:xlink="http://www.w3.org/1999/xlink">
  <g id="Page-2" stroke="none" stroke-width="1" fill="none" fill-rule="evenodd">
    <g id="iPhone-8">
      <g id="Group">
        <path d="M1.42108547e-14,16.0644531 L1.42108547e-14,0.302734375 L1.81640625,0.302734375 L1.81640625,7.5390625 C2.33724219,6.69921455 2.96549111,6.04166904 3.70117188,5.56640625 C4.43685264,5.09114346 5.17252236,4.85351562 5.90820313,4.85351562 C6.5266958,4.85351562 7.0914688,5.01139165 7.60253906,5.32714844 C8.11360933,5.64290522 8.47005107,6.02538838 8.671875,6.47460938 C8.83463623,6.81966318 8.94531221,7.18587046 9.00390625,7.57324219 C9.06250029,7.96061392 9.09179688,8.75975957 9.09179688,9.97070312 L9.09179688,16.0644531 L7.27539063,16.0644531 L7.27539063,9.74609375 C7.27539063,8.69791143 7.2249354,8.00618657 7.12402344,7.67089844 C7.02311147,7.3356103 6.83756646,7.06054795 6.56738281,6.84570312 C6.29719917,6.6308583 6.00260576,6.5234375 5.68359375,6.5234375 C5.04556973,6.5234375 4.36035522,6.82616885 3.62792969,7.43164062 C2.89550415,8.0371124 2.29166904,8.79556836 1.81640625,9.70703125 L1.81640625,16.0644531 L1.42108547e-14,16.0644531 Z M15.0585938,16.0644531 L15.0585938,6.66992188 L12.03125,6.66992188 L12.03125,5.15625 L16.875,5.15625 L16.875,14.5507812 L19.9121094,14.5507812 L19.9121094,16.0644531 L15.0585938,16.0644531 Z M14.7558594,1.22070312 C14.7558594,0.810544824 14.8958319,0.504558301 15.1757813,0.302734375 C15.4557306,0.100910449 15.7193998,0 15.9667969,0 C16.2207044,0 16.4876288,0.100910449 16.7675781,0.302734375 C17.0475274,0.504558301 17.1875,0.810544824 17.1875,1.22070312 C17.1875,1.62435098 17.0475274,1.92708232 16.7675781,2.12890625 C16.4876288,2.33073018 16.2207044,2.43164062 15.9667969,2.43164062 C15.7193998,2.43164062 15.4557306,2.33073018 15.1757813,2.12890625 C14.8958319,1.92708232 14.7558594,1.62435098 14.7558594,1.22070312 Z M24.1308594,15.4882812 L24.1308594,13.5644531 C24.8600297,14.0397159 25.6315063,14.3733714 26.4453125,14.5654297 C27.2591187,14.7574879 27.9492159,14.8535156 28.515625,14.8535156 C29.4335983,14.8535156 30.094399,14.7054051 30.4980469,14.4091797 C30.9016947,14.1129542 31.1035156,13.7434918 31.1035156,13.3007812 C31.1035156,13.007811 31.0091155,12.7571625 30.8203125,12.5488281 C30.6315095,12.3404938 30.1627642,12.0833349 29.4140625,11.7773438 L28.7890625,11.5234375 L27.5292969,11.0253906 C26.1751234,10.4980442 25.3222674,10.0097679 24.9707031,9.56054688 C24.6126284,9.11783633 24.4335938,8.57747715 24.4335938,7.93945312 C24.4335938,7.04101113 24.78027,6.30208623 25.4736328,5.72265625 C26.1669957,5.14322627 27.2916589,4.85351562 28.8476563,4.85351562 C30.0130267,4.85351562 31.1165313,5.02278477 32.1582031,5.36132812 L32.1582031,7.01171875 C30.9602805,6.5820291 29.8339896,6.3671875 28.7792969,6.3671875 C28.0110639,6.3671875 27.4104839,6.50227729 26.9775391,6.77246094 C26.5445942,7.04264458 26.328125,7.37955527 26.328125,7.78320312 C26.328125,8.17383008 26.5169252,8.48632695 26.8945313,8.72070312 C27.2656269,8.9550793 27.8710896,9.22525889 28.7109375,9.53125 L29.9414063,9.98046875 C31.067714,10.3906271 31.8587217,10.8365861 32.3144531,11.3183594 C32.7701846,11.8001326 32.9980469,12.4023401 32.9980469,13.125 C32.9980469,14.0690151 32.6350948,14.8453746 31.9091797,15.4541016 C31.1832646,16.0628286 30.0227944,16.3671875 28.4277344,16.3671875 C27.0344982,16.3671875 25.6022209,16.0742217 24.1308594,15.4882812 Z M45.1269531,15.625 C44.2740843,15.9830747 43.6556009,16.1962887 43.2714844,16.2646484 C42.8873679,16.3330082 42.5162778,16.3671875 42.1582031,16.3671875 C41.3964806,16.3671875 40.6998729,16.2207046 40.0683594,15.9277344 C39.4368458,15.6347642 38.9599625,15.2018258 38.6376953,14.6289062 C38.3154281,14.0559867 38.1542969,13.1705789 38.1542969,11.9726562 L38.1542969,7.578125 L35.4296875,7.578125 L35.4296875,6.06445312 L38.1542969,6.06445312 L38.1542969,1.66992188 L39.9707031,1.66992188 L39.9707031,6.06445312 L44.8242188,6.06445312 L44.8242188,7.578125 L39.9707031,7.578125 L39.9707031,11.9433594 C39.9707031,12.82227 40.0748688,13.442381 40.2832031,13.8037109 C40.4915375,14.1650409 40.769855,14.4303377 41.1181641,14.5996094 C41.4664731,14.7688811 41.8782528,14.8535156 42.3535156,14.8535156 C43.2324263,14.8535156 44.1568962,14.5768257 45.1269531,14.0234375 L45.1269531,15.625 Z M52.5,16.3671875 C50.9374922,16.3671875 49.6875047,15.8219456 48.75,14.7314453 C47.8124953,13.6409451 47.34375,12.2656333 47.34375,10.6054688 C47.34375,8.9453042 47.8124953,7.57162002 48.75,6.484375 C49.6875047,5.39712998 50.9374922,4.85351562 52.5,4.85351562 C54.0559974,4.85351562 55.3027297,5.39712998 56.2402344,6.484375 C57.1777391,7.57162002 57.6464844,8.9453042 57.6464844,10.6054688 C57.6464844,12.2656333 57.1777391,13.6409451 56.2402344,14.7314453 C55.3027297,15.8219456 54.0559974,16.3671875 52.5,16.3671875 Z M52.5,14.8535156 C53.4700569,14.8535156 54.2415336,14.4759152 54.8144531,13.7207031 C55.3873727,12.965491 55.6738281,11.9270899 55.6738281,10.6054688 C55.6738281,9.29035801 55.3873727,8.25521211 54.8144531,7.5 C54.2415336,6.74478789 53.4700569,6.3671875 52.5,6.3671875 C51.5234326,6.3671875 50.7487008,6.74478789 50.1757813,7.5 C49.6028617,8.25521211 49.3164063,9.29035801 49.3164063,10.6054688 C49.3164063,11.9270899 49.6028617,12.965491 50.1757813,13.7207031 C50.7487008,14.4759152 51.5234326,14.8535156 52.5,14.8535156 Z M60.9375,16.0644531 L60.9375,5.15625 L62.7539063,5.15625 L62.7539063,7.5390625 C63.3203153,6.64062051 63.9697229,5.96842671 64.7021484,5.52246094 C65.434574,5.07649517 66.2499955,4.85351562 67.1484375,4.85351562 C67.8059929,4.85351562 68.4635384,4.95442607 69.1210938,5.15625 L69.1210938,9.09179688 L67.3730469,9.09179688 L67.3730469,6.6015625 C67.0670558,6.54947891 66.8261728,6.5234375 66.6503906,6.5234375 C65.9733039,6.5234375 65.309248,6.79036191 64.6582031,7.32421875 C64.0071582,7.85807559 63.3723989,8.65884883 62.7539063,9.7265625 L62.7539063,16.0644531 L60.9375,16.0644531 Z M76.0253906,15.625 L70.9863281,5.15625 L72.9882813,5.15625 L77.0019531,13.3398438 L80.3613281,5.15625 L82.1875,5.15625 L77.9589844,15.2929688 C77.0670528,17.4349065 76.2190795,18.8574184 75.4150391,19.5605469 C74.6109986,20.2636754 73.5709699,20.6152344 72.2949219,20.6152344 C71.7415337,20.6152344 71.246747,20.5664067 70.8105469,20.46875 L70.8105469,18.8671875 C71.3118515,19.0234383 71.7903623,19.1015625 72.2460938,19.1015625 C72.8320342,19.1015625 73.3528623,18.9876313 73.8085938,18.7597656 C74.2643252,18.5318999 74.6809877,18.1282581 75.0585938,17.5488281 C75.4361998,16.9693981 75.7031242,16.4681011 75.859375,16.0449219 L76.0253906,15.625 Z M92.5292969,7.60742188 C93.0891955,6.69595898 93.7565065,6.00911689 94.53125,5.546875 C95.3059935,5.08463311 96.018877,4.85351562 96.6699219,4.85351562 C97.5813848,4.85351562 98.4016891,5.24739189 99.1308594,6.03515625 C99.8600297,6.82292061 100.224609,8.01757012 100.224609,9.61914062 C100.224609,10.8821678 99.9820988,12.0100862 99.4970703,13.0029297 C99.0120418,13.9957732 98.3658895,14.7802706 97.5585938,15.3564453 C96.751298,15.9326201 95.7519591,16.2207031 94.5605469,16.2207031 C94.2220035,16.2207031 93.7011754,16.1848962 92.9980469,16.1132812 C92.8938797,16.1002604 92.7376313,16.0839845 92.5292969,16.0644531 L92.5292969,20.3027344 L90.7128906,20.3027344 L90.7128906,5.15625 L92.5292969,5.15625 L92.5292969,7.60742188 Z M92.5292969,9.765625 L92.5292969,14.4433594 C93.1868522,14.6126311 93.7923149,14.6972656 94.3457031,14.6972656 C95.445969,14.6972656 96.3720666,14.2659548 97.1240234,13.4033203 C97.8759803,12.5406858 98.2519531,11.3606846 98.2519531,9.86328125 C98.2519531,8.77603623 98.0468771,7.95898711 97.6367188,7.41210938 C97.2265604,6.86523164 96.7610703,6.59179688 96.2402344,6.59179688 C95.6738253,6.59179688 95.0504591,6.87825234 94.3701172,7.45117188 C93.6897752,8.02409141 93.0761746,8.79556807 92.5292969,9.765625 Z M111.826172,5.15625 L111.826172,16.0644531 L110.009766,16.0644531 L110.009766,13.671875 C109.423825,14.570317 108.77279,15.2441384 108.056641,15.6933594 C107.340491,16.1425804 106.624353,16.3671875 105.908203,16.3671875 C105.270179,16.3671875 104.685875,16.1962908 104.155273,15.8544922 C103.624672,15.5126936 103.255209,15.0634793 103.046875,14.5068359 C102.838541,13.9501925 102.734375,12.8645914 102.734375,11.25 L102.734375,5.15625 L104.550781,5.15625 L104.550781,11.4746094 C104.550781,12.5227917 104.601236,13.2145166 104.702148,13.5498047 C104.80306,13.8850928 104.988605,14.1601552 105.258789,14.375 C105.528973,14.5898448 105.820311,14.6972656 106.132813,14.6972656 C106.770837,14.6972656 107.456051,14.3961619 108.188477,13.7939453 C108.920902,13.1917288 109.527992,12.4316452 110.009766,11.5136719 L110.009766,5.15625 L111.826172,5.15625 Z M114.980469,15.4882812 L114.980469,13.5644531 C115.709639,14.0397159 116.481116,14.3733714 117.294922,14.5654297 C118.108728,14.7574879 118.798825,14.8535156 119.365234,14.8535156 C120.283208,14.8535156 120.944008,14.7054051 121.347656,14.4091797 C121.751304,14.1129542 121.953125,13.7434918 121.953125,13.3007812 C121.953125,13.007811 121.858725,12.7571625 121.669922,12.5488281 C121.481119,12.3404938 121.012374,12.0833349 120.263672,11.7773438 L119.638672,11.5234375 L118.378906,11.0253906 C117.024733,10.4980442 116.171877,10.0097679 115.820313,9.56054688 C115.462238,9.11783633 115.283203,8.57747715 115.283203,7.93945312 C115.283203,7.04101113 115.629879,6.30208623 116.323242,5.72265625 C117.016605,5.14322627 118.141268,4.85351562 119.697266,4.85351562 C120.862636,4.85351562 121.966141,5.02278477 123.007813,5.36132812 L123.007813,7.01171875 C121.80989,6.5820291 120.683599,6.3671875 119.628906,6.3671875 C118.860673,6.3671875 118.260093,6.50227729 117.827148,6.77246094 C117.394204,7.04264458 117.177734,7.37955527 117.177734,7.78320312 C117.177734,8.17383008 117.366535,8.48632695 117.744141,8.72070312 C118.115236,8.9550793 118.720699,9.22525889 119.560547,9.53125 L120.791016,9.98046875 C121.917323,10.3906271 122.708331,10.8365861 123.164063,11.3183594 C123.619794,11.8001326 123.847656,12.4023401 123.847656,13.125 C123.847656,14.0690151 123.484704,14.8453746 122.758789,15.4541016 C122.032874,16.0628286 120.872404,16.3671875 119.277344,16.3671875 C117.884108,16.3671875 116.45183,16.0742217 114.980469,15.4882812 Z M126.855469,16.0644531 L126.855469,0.302734375 L128.671875,0.302734375 L128.671875,7.5390625 C129.192711,6.69921455 129.82096,6.04166904 130.556641,5.56640625 C131.292321,5.09114346 132.027991,4.85351562 132.763672,4.85351562 C133.382165,4.85351562 133.946938,5.01139165 134.458008,5.32714844 C134.969078,5.64290522 135.32552,6.02538838 135.527344,6.47460938 C135.690105,6.81966318 135.800781,7.18587046 135.859375,7.57324219 C135.917969,7.96061392 135.947266,8.75975957 135.947266,9.97070312 L135.947266,16.0644531 L134.130859,16.0644531 L134.130859,9.74609375 C134.130859,8.69791143 134.080404,8.00618657 133.979492,7.67089844 C133.87858,7.3356103 133.693035,7.06054795 133.422852,6.84570312 C133.152668,6.6308583 132.858075,6.5234375 132.539062,6.5234375 C131.901038,6.5234375 131.215824,6.82616885 130.483398,7.43164062 C129.750973,8.0371124 129.147138,8.79556836 128.671875,9.70703125 L128.671875,16.0644531 L126.855469,16.0644531 Z" id="historypush" fill="#333333" fill-rule="nonzero"></path>
        <path d="M27.7988281,105.548828 C27.2454399,106.460291 26.5797565,107.147133 25.8017578,107.609375 C25.0237591,108.071617 24.309248,108.302734 23.6582031,108.302734 C22.7467402,108.302734 21.9280635,107.908858 21.2021484,107.121094 C20.4762333,106.333329 20.1132812,105.13868 20.1132812,103.537109 C20.1132812,102.274082 20.3541643,101.146164 20.8359375,100.15332 C21.3177107,99.1604768 21.9622355,98.3759794 22.7695312,97.7998047 C23.576827,97.2236299 24.5761659,96.9355469 25.7675781,96.9355469 C26.1126319,96.9355469 26.6334601,96.9713538 27.3300781,97.0429688 C27.4342453,97.0559896 27.5904938,97.0722655 27.7988281,97.0917969 L27.7988281,92.2382812 L29.625,92.2382812 L29.625,108 L27.7988281,108 L27.7988281,105.548828 Z M27.7988281,103.390625 L27.7988281,98.7128906 C27.1542937,98.5436189 26.5553413,98.4589844 26.0019531,98.4589844 C24.8821559,98.4589844 23.949548,98.8919228 23.2041016,99.7578125 C22.4586551,100.623702 22.0859375,101.802076 22.0859375,103.292969 C22.0859375,104.373703 22.289386,105.189125 22.6962891,105.739258 C23.1031921,106.289391 23.5670547,106.564453 24.0878906,106.564453 C24.6542997,106.564453 25.2792935,106.277998 25.9628906,105.705078 C26.6464878,105.132159 27.2584608,104.360682 27.7988281,103.390625 Z M35.5722656,108 L35.5722656,98.6054688 L32.5449219,98.6054688 L32.5449219,97.0917969 L37.3886719,97.0917969 L37.3886719,106.486328 L40.4257812,106.486328 L40.4257812,108 L35.5722656,108 Z M35.2695312,93.15625 C35.2695312,92.7460917 35.4095038,92.4401052 35.6894531,92.2382812 C35.9694024,92.0364573 36.2330717,91.9355469 36.4804688,91.9355469 C36.7343763,91.9355469 37.0013007,92.0364573 37.28125,92.2382812 C37.5611993,92.4401052 37.7011719,92.7460917 37.7011719,93.15625 C37.7011719,93.5598979 37.5611993,93.8626292 37.28125,94.0644531 C37.0013007,94.2662771 36.7343763,94.3671875 36.4804688,94.3671875 C36.2330717,94.3671875 35.9694024,94.2662771 35.6894531,94.0644531 C35.4095038,93.8626292 35.2695312,93.5598979 35.2695312,93.15625 Z M44.6445312,107.423828 L44.6445312,105.5 C45.3737016,105.975263 46.1451782,106.308918 46.9589844,106.500977 C47.7727905,106.693035 48.4628878,106.789062 49.0292969,106.789062 C49.9472702,106.789062 50.6080709,106.640952 51.0117188,106.344727 C51.4153666,106.048501 51.6171875,105.679039 51.6171875,105.236328 C51.6171875,104.943358 51.5227874,104.692709 51.3339844,104.484375 C51.1451813,104.276041 50.676436,104.018882 49.9277344,103.712891 L49.3027344,103.458984 L48.0429688,102.960938 C46.6887953,102.433591 45.8359393,101.945315 45.484375,101.496094 C45.1263003,101.053383 44.9472656,100.513024 44.9472656,99.875 C44.9472656,98.976558 45.2939418,98.2376331 45.9873047,97.6582031 C46.6806675,97.0787731 47.8053308,96.7890625 49.3613281,96.7890625 C50.5266985,96.7890625 51.6302031,96.9583316 52.671875,97.296875 L52.671875,98.9472656 C51.4739523,98.517576 50.3476615,98.3027344 49.2929688,98.3027344 C48.5247357,98.3027344 47.9241558,98.4378242 47.4912109,98.7080078 C47.0582661,98.9781915 46.8417969,99.3151021 46.8417969,99.71875 C46.8417969,100.109377 47.0305971,100.421874 47.4082031,100.65625 C47.7792987,100.890626 48.3847614,101.160806 49.2246094,101.466797 L50.4550781,101.916016 C51.5813858,102.326174 52.3723936,102.772133 52.828125,103.253906 C53.2838564,103.735679 53.5117188,104.337887 53.5117188,105.060547 C53.5117188,106.004562 53.1487667,106.780921 52.4228516,107.389648 C51.6969365,107.998375 50.5364663,108.302734 48.9414062,108.302734 C47.5481701,108.302734 46.1158928,108.009769 44.6445312,107.423828 Z M58.1992188,99.5429688 C58.7591174,98.6315059 59.4264284,97.9446638 60.2011719,97.4824219 C60.9759153,97.02018 61.6887988,96.7890625 62.3398438,96.7890625 C63.2513066,96.7890625 64.0716109,97.1829388 64.8007812,97.9707031 C65.5299516,98.7584675 65.8945312,99.953117 65.8945312,101.554688 C65.8945312,102.817715 65.6520207,103.945633 65.1669922,104.938477 C64.6819637,105.93132 64.0358113,106.715817 63.2285156,107.291992 C62.4212199,107.868167 61.421881,108.15625 60.2304688,108.15625 C59.8919254,108.15625 59.3710973,108.120443 58.6679688,108.048828 C58.5638016,108.035807 58.4075531,108.019531 58.1992188,108 L58.1992188,112.238281 L56.3828125,112.238281 L56.3828125,97.0917969 L58.1992188,97.0917969 L58.1992188,99.5429688 Z M58.1992188,101.701172 L58.1992188,106.378906 C58.8567741,106.548178 59.4622368,106.632812 60.015625,106.632812 C61.1158909,106.632812 62.0419884,106.201502 62.7939453,105.338867 C63.5459022,104.476233 63.921875,103.296231 63.921875,101.798828 C63.921875,100.711583 63.7167989,99.894534 63.3066406,99.3476562 C62.8964823,98.8007785 62.4309922,98.5273438 61.9101562,98.5273438 C61.3437472,98.5273438 60.720381,98.8137992 60.0400391,99.3867188 C59.3596971,99.9596383 58.7460965,100.731115 58.1992188,101.701172 Z M75.6894531,105.548828 C75.1360649,106.460291 74.4703815,107.147133 73.6923828,107.609375 C72.9143841,108.071617 72.199873,108.302734 71.5488281,108.302734 C70.6373652,108.302734 69.8186885,107.908858 69.0927734,107.121094 C68.3668583,106.333329 68.0039062,105.13868 68.0039062,103.537109 C68.0039062,102.274082 68.2447893,101.146164 68.7265625,100.15332 C69.2083357,99.1604768 69.8528605,98.3759794 70.6601562,97.7998047 C71.467452,97.2236299 72.4667909,96.9355469 73.6582031,96.9355469 C74.0032569,96.9355469 74.5240851,96.9713538 75.2207031,97.0429688 C75.3248703,97.0559896 75.4811188,97.0722655 75.6894531,97.0917969 L77.515625,97.0917969 L77.515625,104.796875 C77.515625,106.111986 77.6523424,107.179683 77.9257812,108 L76.03125,108 C75.8880201,107.401039 75.774089,106.58399 75.6894531,105.548828 Z M75.6894531,103.390625 L75.6894531,98.7128906 C75.0449187,98.5436189 74.4459663,98.4589844 73.8925781,98.4589844 C72.7727809,98.4589844 71.840173,98.8919228 71.0947266,99.7578125 C70.3492801,100.623702 69.9765625,101.802076 69.9765625,103.292969 C69.9765625,104.373703 70.180011,105.189125 70.5869141,105.739258 C70.9938171,106.289391 71.4576797,106.564453 71.9785156,106.564453 C72.5449247,106.564453 73.1699185,106.277998 73.8535156,105.705078 C74.5371128,105.132159 75.1490858,104.360682 75.6894531,103.390625 Z M89.6445312,107.560547 C88.7916624,107.918622 88.173179,108.131836 87.7890625,108.200195 C87.404946,108.268555 87.033856,108.302734 86.6757812,108.302734 C85.9140587,108.302734 85.2174511,108.156251 84.5859375,107.863281 C83.9544239,107.570311 83.4775407,107.137373 83.1552734,106.564453 C82.8330062,105.991534 82.671875,105.106126 82.671875,103.908203 L82.671875,99.5136719 L79.9472656,99.5136719 L79.9472656,98 L82.671875,98 L82.671875,93.6054688 L84.4882812,93.6054688 L84.4882812,98 L89.3417969,98 L89.3417969,99.5136719 L84.4882812,99.5136719 L84.4882812,103.878906 C84.4882812,104.757817 84.5924469,105.377928 84.8007812,105.739258 C85.0091156,106.100588 85.2874332,106.365885 85.6357422,106.535156 C85.9840512,106.704428 86.395831,106.789062 86.8710938,106.789062 C87.7500044,106.789062 88.6744743,106.512373 89.6445312,105.958984 L89.6445312,107.560547 Z M101.705078,107.6875 C100.487624,108.097658 99.3287815,108.302734 98.2285156,108.302734 C97.1347602,108.302734 96.1630902,108.050458 95.3134766,107.545898 C94.4638629,107.041339 93.8014347,106.357752 93.3261719,105.495117 C92.8509091,104.632483 92.6132812,103.651047 92.6132812,102.550781 C92.6132812,100.897127 93.1520128,99.523443 94.2294922,98.4296875 C95.3069715,97.335932 96.6074143,96.7890625 98.1308594,96.7890625 C99.2571671,96.7890625 100.448561,97.0006489 101.705078,97.4238281 L101.705078,99.171875 C100.435541,98.592445 99.2994842,98.3027344 98.296875,98.3027344 C97.6328092,98.3027344 97.0078154,98.4671208 96.421875,98.7958984 C95.8359346,99.1246761 95.3834651,99.6373663 95.0644531,100.333984 C94.7454411,101.030602 94.5859375,101.746741 94.5859375,102.482422 C94.5859375,103.4655 94.8935516,104.40299 95.5087891,105.294922 C96.1240265,106.186853 97.0891861,106.632812 98.4042969,106.632812 C98.8014343,106.632812 99.1920554,106.605144 99.5761719,106.549805 C99.9602884,106.494466 100.669917,106.291017 101.705078,105.939453 L101.705078,107.6875 Z M104.527344,108 L104.527344,92.2382812 L106.34375,92.2382812 L106.34375,99.4746094 C106.864586,98.6347614 107.492835,97.9772159 108.228516,97.5019531 C108.964196,97.0266903 109.699866,96.7890625 110.435547,96.7890625 C111.05404,96.7890625 111.618813,96.9469385 112.129883,97.2626953 C112.640953,97.5784521 112.997395,97.9609353 113.199219,98.4101562 C113.36198,98.7552101 113.472656,99.1214173 113.53125,99.5087891 C113.589844,99.8961608 113.619141,100.695306 113.619141,101.90625 L113.619141,108 L111.802734,108 L111.802734,101.681641 C111.802734,100.633458 111.752279,99.9417334 111.651367,99.6064453 C111.550455,99.2711572 111.36491,98.9960948 111.094727,98.78125 C110.824543,98.5664052 110.52995,98.4589844 110.210938,98.4589844 C109.572913,98.4589844 108.887699,98.7617157 108.155273,99.3671875 C107.422848,99.9726593 106.819013,100.731115 106.34375,101.642578 L106.34375,108 L104.527344,108 Z" id="dispatch" fill="#333333" fill-rule="nonzero"></path>
        <path id="Line" d="M66.5,65 L66.5,34.5 L68.5,34.5 L68.5,65 L74.5,65 L67.5,79 L60.5,65 L66.5,65 Z" fill="#333333" fill-rule="nonzero"></path>
        <path d="M17.4433594,199 L17.4433594,184.761719 L14.1816406,184.761719 L14.1816406,183.238281 L19.2597656,183.238281 L19.2597656,197.486328 L22.6679688,197.486328 L22.6679688,199 L17.4433594,199 Z M35.5878906,198.277344 C34.1360604,198.967451 32.7623763,199.3125 31.4667969,199.3125 C30.483719,199.3125 29.6048216,199.068362 28.8300781,198.580078 C28.0553347,198.091794 27.4352237,197.393559 26.9697266,196.485352 C26.5042294,195.577144 26.2714844,194.605474 26.2714844,193.570312 C26.2714844,192.574214 26.4928363,191.617192 26.9355469,190.699219 C27.3782574,189.781245 27.9967408,189.066734 28.7910156,188.555664 C29.5852904,188.044594 30.4706982,187.789062 31.4472656,187.789062 C32.742845,187.789062 33.7828737,188.251297 34.5673828,189.175781 C35.3518919,190.100265 35.7441406,191.526032 35.7441406,193.453125 L35.7441406,193.84375 L28.2246094,193.84375 C28.2246094,194.598962 28.3824854,195.289059 28.6982422,195.914062 C29.013999,196.539066 29.4290339,197.007811 29.9433594,197.320312 C30.4576849,197.632814 31.0436165,197.789062 31.7011719,197.789062 C32.8730527,197.789062 34.1686127,197.398441 35.5878906,196.617188 L35.5878906,198.277344 Z M28.3320312,192.486328 L33.7714844,192.486328 L33.7714844,192.222656 C33.7714844,191.330725 33.5533876,190.621096 33.1171875,190.09375 C32.6809874,189.566404 32.0983109,189.302734 31.3691406,189.302734 C30.6334599,189.302734 29.997073,189.571286 29.4599609,190.108398 C28.9228489,190.64551 28.5468761,191.438146 28.3320312,192.486328 Z M45.6855469,196.548828 C45.1321587,197.460291 44.4664752,198.147133 43.6884766,198.609375 C42.9104779,199.071617 42.1959668,199.302734 41.5449219,199.302734 C40.633459,199.302734 39.8147823,198.908858 39.0888672,198.121094 C38.3629521,197.333329 38,196.13868 38,194.537109 C38,193.274082 38.240883,192.146164 38.7226562,191.15332 C39.2044295,190.160477 39.8489543,189.375979 40.65625,188.799805 C41.4635457,188.22363 42.4628847,187.935547 43.6542969,187.935547 C43.9993507,187.935547 44.5201788,187.971354 45.2167969,188.042969 C45.3209641,188.05599 45.4772125,188.072266 45.6855469,188.091797 L47.5117188,188.091797 L47.5117188,195.796875 C47.5117188,197.111986 47.6484361,198.179683 47.921875,199 L46.0273438,199 C45.8841139,198.401039 45.7701827,197.58399 45.6855469,196.548828 Z M45.6855469,194.390625 L45.6855469,189.712891 C45.0410124,189.543619 44.4420601,189.458984 43.8886719,189.458984 C42.7688746,189.458984 41.8362667,189.891923 41.0908203,190.757812 C40.3453739,191.623702 39.9726562,192.802076 39.9726562,194.292969 C39.9726562,195.373703 40.1761047,196.189125 40.5830078,196.739258 C40.9899109,197.289391 41.4537734,197.564453 41.9746094,197.564453 C42.5410185,197.564453 43.1660122,197.277998 43.8496094,196.705078 C44.5332065,196.132159 45.1451796,195.360682 45.6855469,194.390625 Z M54.0644531,199 L49.328125,188.091797 L51.3203125,188.091797 L55.0605469,196.724609 L58.8789062,188.091797 L60.6953125,188.091797 L55.9199219,199 L54.0644531,199 Z M71.59375,198.277344 C70.1419198,198.967451 68.7682356,199.3125 67.4726562,199.3125 C66.4895784,199.3125 65.610681,199.068362 64.8359375,198.580078 C64.061194,198.091794 63.4410831,197.393559 62.9755859,196.485352 C62.5100888,195.577144 62.2773438,194.605474 62.2773438,193.570312 C62.2773438,192.574214 62.4986957,191.617192 62.9414062,190.699219 C63.3841168,189.781245 64.0026002,189.066734 64.796875,188.555664 C65.5911498,188.044594 66.4765576,187.789062 67.453125,187.789062 C68.7487044,187.789062 69.7887331,188.251297 70.5732422,189.175781 C71.3577513,190.100265 71.75,191.526032 71.75,193.453125 L71.75,193.84375 L64.2304688,193.84375 C64.2304688,194.598962 64.3883448,195.289059 64.7041016,195.914062 C65.0198583,196.539066 65.4348933,197.007811 65.9492188,197.320312 C66.4635442,197.632814 67.0494759,197.789062 67.7070312,197.789062 C68.8789121,197.789062 70.1744721,197.398441 71.59375,196.617188 L71.59375,198.277344 Z M64.3378906,192.486328 L69.7773438,192.486328 L69.7773438,192.222656 C69.7773438,191.330725 69.559247,190.621096 69.1230469,190.09375 C68.6868468,189.566404 68.1041703,189.302734 67.375,189.302734 C66.6393192,189.302734 66.0029324,189.571286 65.4658203,190.108398 C64.9287083,190.64551 64.5527354,191.438146 64.3378906,192.486328 Z M95.5976562,198.277344 C94.1458261,198.967451 92.7721419,199.3125 91.4765625,199.3125 C90.4934847,199.3125 89.6145872,199.068362 88.8398438,198.580078 C88.0651003,198.091794 87.4449893,197.393559 86.9794922,196.485352 C86.5139951,195.577144 86.28125,194.605474 86.28125,193.570312 C86.28125,192.574214 86.502602,191.617192 86.9453125,190.699219 C87.388023,189.781245 88.0065064,189.066734 88.8007812,188.555664 C89.5950561,188.044594 90.4804639,187.789062 91.4570312,187.789062 C92.7526106,187.789062 93.7926393,188.251297 94.5771484,189.175781 C95.3616576,190.100265 95.7539062,191.526032 95.7539062,193.453125 L95.7539062,193.84375 L88.234375,193.84375 C88.234375,194.598962 88.392251,195.289059 88.7080078,195.914062 C89.0237646,196.539066 89.4387995,197.007811 89.953125,197.320312 C90.4674505,197.632814 91.0533821,197.789062 91.7109375,197.789062 C92.8828184,197.789062 94.1783783,197.398441 95.5976562,196.617188 L95.5976562,198.277344 Z M88.3417969,192.486328 L93.78125,192.486328 L93.78125,192.222656 C93.78125,191.330725 93.5631532,190.621096 93.1269531,190.09375 C92.690753,189.566404 92.1080766,189.302734 91.3789062,189.302734 C90.6432255,189.302734 90.0068386,189.571286 89.4697266,190.108398 C88.9326145,190.64551 88.5566417,191.438146 88.3417969,192.486328 Z M98.5273438,199 L98.5273438,188.091797 L100.34375,188.091797 L100.34375,190.474609 C100.864586,189.634761 101.492835,188.977216 102.228516,188.501953 C102.964196,188.02669 103.699866,187.789062 104.435547,187.789062 C105.080081,187.789062 105.666013,187.959959 106.193359,188.301758 C106.720706,188.643556 107.090168,189.091143 107.301758,189.644531 C107.513347,190.197919 107.619141,191.285148 107.619141,192.90625 L107.619141,199 L105.802734,199 L105.802734,192.681641 C105.802734,191.633458 105.752279,190.941733 105.651367,190.606445 C105.550455,190.271157 105.36491,189.996095 105.094727,189.78125 C104.824543,189.566405 104.52995,189.458984 104.210938,189.458984 C103.572913,189.458984 102.887699,189.761716 102.155273,190.367188 C101.422848,190.972659 100.819013,191.731115 100.34375,192.642578 L100.34375,199 L98.5273438,199 Z M117.814453,196.548828 C117.261065,197.460291 116.595381,198.147133 115.817383,198.609375 C115.039384,199.071617 114.324873,199.302734 113.673828,199.302734 C112.762365,199.302734 111.943689,198.908858 111.217773,198.121094 C110.491858,197.333329 110.128906,196.13868 110.128906,194.537109 C110.128906,193.274082 110.369789,192.146164 110.851562,191.15332 C111.333336,190.160477 111.977861,189.375979 112.785156,188.799805 C113.592452,188.22363 114.591791,187.935547 115.783203,187.935547 C116.128257,187.935547 116.649085,187.971354 117.345703,188.042969 C117.44987,188.05599 117.606119,188.072266 117.814453,188.091797 L117.814453,183.238281 L119.640625,183.238281 L119.640625,199 L117.814453,199 L117.814453,196.548828 Z M117.814453,194.390625 L117.814453,189.712891 C117.169919,189.543619 116.570966,189.458984 116.017578,189.458984 C114.897781,189.458984 113.965173,189.891923 113.219727,190.757812 C112.47428,191.623702 112.101562,192.802076 112.101562,194.292969 C112.101562,195.373703 112.305011,196.189125 112.711914,196.739258 C113.118817,197.289391 113.58268,197.564453 114.103516,197.564453 C114.669925,197.564453 115.294918,197.277998 115.978516,196.705078 C116.662113,196.132159 117.274086,195.360682 117.814453,194.390625 Z" id="leaveend" fill="#333333" fill-rule="nonzero"></path>
        <path id="Line" d="M66.5,156 L66.5,125.5 L68.5,125.5 L68.5,156 L74.5,156 L67.5,170 L60.5,156 L66.5,156 Z" fill="#333333" fill-rule="nonzero"></path>
        <path d="M23.5859375,289.277344 C22.1341073,289.967451 20.7604231,290.3125 19.4648438,290.3125 C18.4817659,290.3125 17.6028685,290.068362 16.828125,289.580078 C16.0533815,289.091794 15.4332706,288.393559 14.9677734,287.485352 C14.5022763,286.577144 14.2695312,285.605474 14.2695312,284.570312 C14.2695312,283.574214 14.4908832,282.617192 14.9335938,281.699219 C15.3763043,280.781245 15.9947877,280.066734 16.7890625,279.555664 C17.5833373,279.044594 18.4687451,278.789062 19.4453125,278.789062 C20.7408919,278.789062 21.7809206,279.251297 22.5654297,280.175781 C23.3499388,281.100265 23.7421875,282.526032 23.7421875,284.453125 L23.7421875,284.84375 L16.2226562,284.84375 C16.2226562,285.598962 16.3805323,286.289059 16.6962891,286.914062 C17.0120458,287.539066 17.4270808,288.007811 17.9414062,288.320312 C18.4557317,288.632814 19.0416634,288.789062 19.6992188,288.789062 C20.8710996,288.789062 22.1666596,288.398441 23.5859375,287.617188 L23.5859375,289.277344 Z M16.3300781,283.486328 L21.7695312,283.486328 L21.7695312,283.222656 C21.7695312,282.330725 21.5514345,281.621096 21.1152344,281.09375 C20.6790343,280.566404 20.0963578,280.302734 19.3671875,280.302734 C18.6315067,280.302734 17.9951199,280.571286 17.4580078,281.108398 C16.9208958,281.64551 16.5449229,282.438146 16.3300781,283.486328 Z M26.515625,290 L26.515625,279.091797 L28.3320312,279.091797 L28.3320312,281.474609 C28.8528672,280.634761 29.4811161,279.977216 30.2167969,279.501953 C30.9524776,279.02669 31.6881474,278.789062 32.4238281,278.789062 C33.0683626,278.789062 33.6542942,278.959959 34.1816406,279.301758 C34.708987,279.643556 35.0784495,280.091143 35.2900391,280.644531 C35.5016287,281.197919 35.6074219,282.285148 35.6074219,283.90625 L35.6074219,290 L33.7910156,290 L33.7910156,283.681641 C33.7910156,282.633458 33.7405604,281.941733 33.6396484,281.606445 C33.5387365,281.271157 33.3531915,280.996095 33.0830078,280.78125 C32.8128242,280.566405 32.5182308,280.458984 32.1992188,280.458984 C31.5611947,280.458984 30.8759802,280.761716 30.1435547,281.367188 C29.4111292,281.972659 28.807294,282.731115 28.3320312,283.642578 L28.3320312,290 L26.515625,290 Z M47.6386719,289.560547 C46.785803,289.918622 46.1673196,290.131836 45.7832031,290.200195 C45.3990866,290.268555 45.0279966,290.302734 44.6699219,290.302734 C43.9081993,290.302734 43.2115917,290.156251 42.5800781,289.863281 C41.9485646,289.570311 41.4716813,289.137373 41.1494141,288.564453 C40.8271468,287.991534 40.6660156,287.106126 40.6660156,285.908203 L40.6660156,281.513672 L37.9414062,281.513672 L37.9414062,280 L40.6660156,280 L40.6660156,275.605469 L42.4824219,275.605469 L42.4824219,280 L47.3359375,280 L47.3359375,281.513672 L42.4824219,281.513672 L42.4824219,285.878906 C42.4824219,286.757817 42.5865875,287.377928 42.7949219,287.739258 C43.0032562,288.100588 43.2815738,288.365885 43.6298828,288.535156 C43.9781918,288.704428 44.3899716,288.789062 44.8652344,288.789062 C45.744145,288.789062 46.6686149,288.512373 47.6386719,287.958984 L47.6386719,289.560547 Z M59.5917969,289.277344 C58.1399667,289.967451 56.7662825,290.3125 55.4707031,290.3125 C54.4876253,290.3125 53.6087278,290.068362 52.8339844,289.580078 C52.0592409,289.091794 51.4391299,288.393559 50.9736328,287.485352 C50.5081357,286.577144 50.2753906,285.605474 50.2753906,284.570312 C50.2753906,283.574214 50.4967426,282.617192 50.9394531,281.699219 C51.3821637,280.781245 52.0006471,280.066734 52.7949219,279.555664 C53.5891967,279.044594 54.4746045,278.789062 55.4511719,278.789062 C56.7467513,278.789062 57.7867799,279.251297 58.5712891,280.175781 C59.3557982,281.100265 59.7480469,282.526032 59.7480469,284.453125 L59.7480469,284.84375 L52.2285156,284.84375 C52.2285156,285.598962 52.3863917,286.289059 52.7021484,286.914062 C53.0179052,287.539066 53.4329401,288.007811 53.9472656,288.320312 C54.4615911,288.632814 55.0475228,288.789062 55.7050781,288.789062 C56.876959,288.789062 58.1725189,288.398441 59.5917969,287.617188 L59.5917969,289.277344 Z M52.3359375,283.486328 L57.7753906,283.486328 L57.7753906,283.222656 C57.7753906,282.330725 57.5572938,281.621096 57.1210938,281.09375 C56.6848937,280.566404 56.1022172,280.302734 55.3730469,280.302734 C54.6373661,280.302734 54.0009792,280.571286 53.4638672,281.108398 C52.9267551,281.64551 52.5507823,282.438146 52.3359375,283.486328 Z M63.4492188,290 L63.4492188,279.091797 L65.265625,279.091797 L65.265625,281.474609 C65.8320341,280.576167 66.4814417,279.903974 67.2138672,279.458008 C67.9462927,279.012042 68.7617143,278.789062 69.6601562,278.789062 C70.3177116,278.789062 70.9752571,278.889973 71.6328125,279.091797 L71.6328125,283.027344 L69.8847656,283.027344 L69.8847656,280.537109 C69.5787745,280.485026 69.3378915,280.458984 69.1621094,280.458984 C68.4850227,280.458984 67.8209668,280.725909 67.1699219,281.259766 C66.518877,281.793622 65.8841177,282.594396 65.265625,283.662109 L65.265625,290 L63.4492188,290 Z M95.5976562,289.277344 C94.1458261,289.967451 92.7721419,290.3125 91.4765625,290.3125 C90.4934847,290.3125 89.6145872,290.068362 88.8398438,289.580078 C88.0651003,289.091794 87.4449893,288.393559 86.9794922,287.485352 C86.5139951,286.577144 86.28125,285.605474 86.28125,284.570312 C86.28125,283.574214 86.502602,282.617192 86.9453125,281.699219 C87.388023,280.781245 88.0065064,280.066734 88.8007812,279.555664 C89.5950561,279.044594 90.4804639,278.789062 91.4570312,278.789062 C92.7526106,278.789062 93.7926393,279.251297 94.5771484,280.175781 C95.3616576,281.100265 95.7539062,282.526032 95.7539062,284.453125 L95.7539062,284.84375 L88.234375,284.84375 C88.234375,285.598962 88.392251,286.289059 88.7080078,286.914062 C89.0237646,287.539066 89.4387995,288.007811 89.953125,288.320312 C90.4674505,288.632814 91.0533821,288.789062 91.7109375,288.789062 C92.8828184,288.789062 94.1783783,288.398441 95.5976562,287.617188 L95.5976562,289.277344 Z M88.3417969,283.486328 L93.78125,283.486328 L93.78125,283.222656 C93.78125,282.330725 93.5631532,281.621096 93.1269531,281.09375 C92.690753,280.566404 92.1080766,280.302734 91.3789062,280.302734 C90.6432255,280.302734 90.0068386,280.571286 89.4697266,281.108398 C88.9326145,281.64551 88.5566417,282.438146 88.3417969,283.486328 Z M98.5273438,290 L98.5273438,279.091797 L100.34375,279.091797 L100.34375,281.474609 C100.864586,280.634761 101.492835,279.977216 102.228516,279.501953 C102.964196,279.02669 103.699866,278.789062 104.435547,278.789062 C105.080081,278.789062 105.666013,278.959959 106.193359,279.301758 C106.720706,279.643556 107.090168,280.091143 107.301758,280.644531 C107.513347,281.197919 107.619141,282.285148 107.619141,283.90625 L107.619141,290 L105.802734,290 L105.802734,283.681641 C105.802734,282.633458 105.752279,281.941733 105.651367,281.606445 C105.550455,281.271157 105.36491,280.996095 105.094727,280.78125 C104.824543,280.566405 104.52995,280.458984 104.210938,280.458984 C103.572913,280.458984 102.887699,280.761716 102.155273,281.367188 C101.422848,281.972659 100.819013,282.731115 100.34375,283.642578 L100.34375,290 L98.5273438,290 Z M117.814453,287.548828 C117.261065,288.460291 116.595381,289.147133 115.817383,289.609375 C115.039384,290.071617 114.324873,290.302734 113.673828,290.302734 C112.762365,290.302734 111.943689,289.908858 111.217773,289.121094 C110.491858,288.333329 110.128906,287.13868 110.128906,285.537109 C110.128906,284.274082 110.369789,283.146164 110.851562,282.15332 C111.333336,281.160477 111.977861,280.375979 112.785156,279.799805 C113.592452,279.22363 114.591791,278.935547 115.783203,278.935547 C116.128257,278.935547 116.649085,278.971354 117.345703,279.042969 C117.44987,279.05599 117.606119,279.072266 117.814453,279.091797 L117.814453,274.238281 L119.640625,274.238281 L119.640625,290 L117.814453,290 L117.814453,287.548828 Z M117.814453,285.390625 L117.814453,280.712891 C117.169919,280.543619 116.570966,280.458984 116.017578,280.458984 C114.897781,280.458984 113.965173,280.891923 113.219727,281.757812 C112.47428,282.623702 112.101562,283.802076 112.101562,285.292969 C112.101562,286.373703 112.305011,287.189125 112.711914,287.739258 C113.118817,288.289391 113.58268,288.564453 114.103516,288.564453 C114.669925,288.564453 115.294918,288.277998 115.978516,287.705078 C116.662113,287.132159 117.274086,286.360682 117.814453,285.390625 Z" id="enterend" fill="#333333" fill-rule="nonzero"></path>
        <path id="Line" d="M66.5,247 L66.5,216.5 L68.5,216.5 L68.5,247 L74.5,247 L67.5,261 L60.5,247 L66.5,247 Z" fill="#333333" fill-rule="nonzero"></path>
        <path id="Line" d="M180,100.5 L151,100.5 L151,102.5 L180,102.5 L180,100.5 Z M180,102.5 L180,100.5 L151,100.5 L151,102.5 L180,102.5 Z" fill="#333333" fill-rule="nonzero"></path>
        <path d="M136,283 L181,283" id="Path" stroke="#333333" stroke-width="2"></path>
        <path d="M180,100.5 L180,284 L180,100.5 Z" id="Path" stroke="#333333" stroke-width="2"></path>
        <polygon id="Triangle" fill="#333333" points="137 101.5 151 94.5 151 108.5"></polygon>
        <path d="M194.380859,190 L193.136719,182.364258 L194.319336,182.364258 L195.043945,187.012695 L195.235352,188.092773 L195.419922,187.012695 L196.636719,182.364258 L197.77832,182.364258 L199.152344,187.012695 L199.391602,188.092773 L199.548828,187.012695 L200.280273,182.364258 L201.257812,182.364258 L200.020508,190 L198.831055,190 L197.368164,185.084961 L197.135742,184.004883 L197.101562,184.004883 L196.889648,185.078125 L195.618164,190 L194.380859,190 Z M202.460938,190 L202.460938,178.966797 L203.732422,178.966797 L203.732422,184.032227 C204.097007,183.444333 204.536781,182.984051 205.051758,182.651367 C205.566734,182.318683 206.081703,182.152344 206.59668,182.152344 C207.029625,182.152344 207.424966,182.262857 207.782715,182.483887 C208.140464,182.704916 208.389973,182.972655 208.53125,183.287109 C208.645183,183.528647 208.722656,183.784992 208.763672,184.056152 C208.804688,184.327313 208.825195,184.886715 208.825195,185.734375 L208.825195,190 L207.553711,190 L207.553711,185.577148 C207.553711,184.843421 207.518392,184.359213 207.447754,184.124512 C207.377116,183.88981 207.247234,183.697266 207.058105,183.546875 C206.868977,183.396484 206.662762,183.321289 206.439453,183.321289 C205.992836,183.321289 205.513186,183.533201 205.000488,183.957031 C204.48779,184.380861 204.065106,184.911781 203.732422,185.549805 L203.732422,190 L202.460938,190 Z M213.001953,190 L213.001953,183.423828 L210.882812,183.423828 L210.882812,182.364258 L214.273438,182.364258 L214.273438,188.94043 L216.399414,188.94043 L216.399414,190 L213.001953,190 Z M212.790039,179.609375 C212.790039,179.322264 212.88802,179.108074 213.083984,178.966797 C213.279949,178.82552 213.464517,178.754883 213.637695,178.754883 C213.815431,178.754883 214.002278,178.82552 214.198242,178.966797 C214.394207,179.108074 214.492188,179.322264 214.492188,179.609375 C214.492188,179.891928 214.394207,180.10384 214.198242,180.245117 C214.002278,180.386394 213.815431,180.457031 213.637695,180.457031 C213.464517,180.457031 213.279949,180.386394 213.083984,180.245117 C212.88802,180.10384 212.790039,179.891928 212.790039,179.609375 Z M221.314453,190 L221.314453,180.033203 L219.03125,180.033203 L219.03125,178.966797 L222.585938,178.966797 L222.585938,188.94043 L224.97168,188.94043 L224.97168,190 L221.314453,190 Z M234.015625,189.494141 C232.999344,189.977216 232.037765,190.21875 231.130859,190.21875 C230.442705,190.21875 229.827477,190.047853 229.285156,189.706055 C228.742836,189.364256 228.308758,188.875491 227.98291,188.239746 C227.657062,187.604001 227.494141,186.923832 227.494141,186.199219 C227.494141,185.50195 227.649087,184.832034 227.958984,184.189453 C228.268882,183.546872 228.70182,183.046714 229.257812,182.688965 C229.813805,182.331216 230.43359,182.152344 231.117188,182.152344 C232.024093,182.152344 232.752113,182.475908 233.30127,183.123047 C233.850426,183.770186 234.125,184.768222 234.125,186.117188 L234.125,186.390625 L228.861328,186.390625 C228.861328,186.919273 228.971841,187.402342 229.192871,187.839844 C229.413901,188.277346 229.704425,188.605468 230.064453,188.824219 C230.424481,189.04297 230.834633,189.152344 231.294922,189.152344 C232.115238,189.152344 233.02213,188.878909 234.015625,188.332031 L234.015625,189.494141 Z M228.936523,185.44043 L232.744141,185.44043 L232.744141,185.255859 C232.744141,184.631507 232.591473,184.134767 232.286133,183.765625 C231.980793,183.396483 231.572919,183.211914 231.0625,183.211914 C230.547523,183.211914 230.102053,183.3999 229.726074,183.775879 C229.350096,184.151857 229.086915,184.706702 228.936523,185.44043 Z M244.467773,190 L244.467773,178.966797 L245.739258,178.966797 L245.739258,184.032227 C246.103843,183.444333 246.543617,182.984051 247.058594,182.651367 C247.57357,182.318683 248.088539,182.152344 248.603516,182.152344 C249.03646,182.152344 249.431802,182.262857 249.789551,182.483887 C250.1473,182.704916 250.396809,182.972655 250.538086,183.287109 C250.652019,183.528647 250.729492,183.784992 250.770508,184.056152 C250.811524,184.327313 250.832031,184.886715 250.832031,185.734375 L250.832031,190 L249.560547,190 L249.560547,185.577148 C249.560547,184.843421 249.525228,184.359213 249.45459,184.124512 C249.383951,183.88981 249.25407,183.697266 249.064941,183.546875 C248.875813,183.396484 248.669597,183.321289 248.446289,183.321289 C247.999672,183.321289 247.520022,183.533201 247.007324,183.957031 C246.494626,184.380861 246.071942,184.911781 245.739258,185.549805 L245.739258,190 L244.467773,190 Z M255.008789,190 L255.008789,183.423828 L252.889648,183.423828 L252.889648,182.364258 L256.280273,182.364258 L256.280273,188.94043 L258.40625,188.94043 L258.40625,190 L255.008789,190 Z M254.796875,179.609375 C254.796875,179.322264 254.894856,179.108074 255.09082,178.966797 C255.286785,178.82552 255.471353,178.754883 255.644531,178.754883 C255.822267,178.754883 256.009114,178.82552 256.205078,178.966797 C256.401043,179.108074 256.499023,179.322264 256.499023,179.609375 C256.499023,179.891928 256.401043,180.10384 256.205078,180.245117 C256.009114,180.386394 255.822267,180.457031 255.644531,180.457031 C255.471353,180.457031 255.286785,180.386394 255.09082,180.245117 C254.894856,180.10384 254.796875,179.891928 254.796875,179.609375 Z M261.359375,189.59668 L261.359375,188.25 C261.869794,188.582684 262.409828,188.816243 262.979492,188.950684 C263.549156,189.085124 264.032225,189.152344 264.428711,189.152344 C265.071292,189.152344 265.533853,189.048666 265.816406,188.841309 C266.09896,188.633951 266.240234,188.375327 266.240234,188.06543 C266.240234,187.860351 266.174154,187.684897 266.041992,187.539062 C265.90983,187.393228 265.581708,187.213217 265.057617,186.999023 L264.620117,186.821289 L263.738281,186.472656 C262.79036,186.103514 262.193361,185.76172 261.947266,185.447266 C261.696613,185.137368 261.571289,184.759117 261.571289,184.3125 C261.571289,183.683591 261.813962,183.166343 262.299316,182.760742 C262.78467,182.355141 263.571935,182.152344 264.661133,182.152344 C265.476892,182.152344 266.249345,182.270832 266.978516,182.507812 L266.978516,183.663086 C266.13997,183.362303 265.351566,183.211914 264.613281,183.211914 C264.075518,183.211914 263.655112,183.306477 263.352051,183.495605 C263.048989,183.684734 262.897461,183.920572 262.897461,184.203125 C262.897461,184.476564 263.029621,184.695312 263.293945,184.859375 C263.553712,185.023438 263.977536,185.212564 264.56543,185.426758 L265.426758,185.741211 C266.215173,186.028322 266.768879,186.340493 267.087891,186.677734 C267.406903,187.014976 267.566406,187.436521 267.566406,187.942383 C267.566406,188.603193 267.31234,189.146645 266.804199,189.572754 C266.296059,189.998863 265.48373,190.211914 264.367188,190.211914 C263.391922,190.211914 262.389328,190.006838 261.359375,189.59668 Z M276.056641,189.692383 C275.459632,189.943035 275.026694,190.092285 274.757812,190.140137 C274.488931,190.187989 274.229168,190.211914 273.978516,190.211914 C273.44531,190.211914 272.957685,190.109376 272.515625,189.904297 C272.073565,189.699218 271.739747,189.396161 271.51416,188.995117 C271.288573,188.594074 271.175781,187.974288 271.175781,187.135742 L271.175781,184.05957 L269.268555,184.05957 L269.268555,183 L271.175781,183 L271.175781,179.923828 L272.447266,179.923828 L272.447266,183 L275.844727,183 L275.844727,184.05957 L272.447266,184.05957 L272.447266,187.115234 C272.447266,187.730472 272.520182,188.16455 272.666016,188.41748 C272.81185,188.670411 273.006672,188.856119 273.250488,188.974609 C273.494305,189.0931 273.78255,189.152344 274.115234,189.152344 C274.730472,189.152344 275.377601,188.958661 276.056641,188.571289 L276.056641,189.692383 Z M281.217773,190.211914 C280.124018,190.211914 279.249027,189.830245 278.592773,189.066895 C277.93652,188.303544 277.608398,187.340826 277.608398,186.178711 C277.608398,185.016596 277.93652,184.055017 278.592773,183.293945 C279.249027,182.532874 280.124018,182.152344 281.217773,182.152344 C282.306972,182.152344 283.179684,182.532874 283.835938,183.293945 C284.492191,184.055017 284.820312,185.016596 284.820312,186.178711 C284.820312,187.340826 284.492191,188.303544 283.835938,189.066895 C283.179684,189.830245 282.306972,190.211914 281.217773,190.211914 Z M281.217773,189.152344 C281.896813,189.152344 282.436847,188.888023 282.837891,188.359375 C283.238934,187.830727 283.439453,187.103846 283.439453,186.178711 C283.439453,185.258133 283.238934,184.533531 282.837891,184.004883 C282.436847,183.476234 281.896813,183.211914 281.217773,183.211914 C280.534176,183.211914 279.991864,183.476234 279.59082,184.004883 C279.189777,184.533531 278.989258,185.258133 278.989258,186.178711 C278.989258,187.103846 279.189777,187.830727 279.59082,188.359375 C279.991864,188.888023 280.534176,189.152344 281.217773,189.152344 Z M287.124023,190 L287.124023,182.364258 L288.395508,182.364258 L288.395508,184.032227 C288.791994,183.403317 289.246579,182.932782 289.759277,182.620605 C290.271975,182.308429 290.84277,182.152344 291.47168,182.152344 C291.931968,182.152344 292.39225,182.222981 292.852539,182.364258 L292.852539,185.119141 L291.628906,185.119141 L291.628906,183.375977 C291.414712,183.339518 291.246094,183.321289 291.123047,183.321289 C290.649086,183.321289 290.184247,183.508136 289.728516,183.881836 C289.272784,184.255536 288.828453,184.816077 288.395508,185.563477 L288.395508,190 L287.124023,190 Z M297.685547,189.692383 L294.158203,182.364258 L295.55957,182.364258 L298.369141,188.092773 L300.720703,182.364258 L301.999023,182.364258 L299.039062,189.459961 C298.41471,190.959317 297.821129,191.955076 297.258301,192.447266 C296.695472,192.939456 295.967452,193.185547 295.074219,193.185547 C294.686847,193.185547 294.340496,193.151368 294.035156,193.083008 L294.035156,191.961914 C294.386069,192.07129 294.721027,192.125977 295.040039,192.125977 C295.450197,192.125977 295.814777,192.046225 296.133789,191.886719 C296.452801,191.727213 296.744465,191.444663 297.008789,191.039062 C297.273113,190.633462 297.45996,190.282554 297.569336,189.986328 L297.685547,189.692383 Z M311.767578,189.59668 L311.767578,188.25 C312.277997,188.582684 312.818031,188.816243 313.387695,188.950684 C313.95736,189.085124 314.440428,189.152344 314.836914,189.152344 C315.479495,189.152344 315.942056,189.048666 316.224609,188.841309 C316.507163,188.633951 316.648438,188.375327 316.648438,188.06543 C316.648438,187.860351 316.582357,187.684897 316.450195,187.539062 C316.318033,187.393228 315.989911,187.213217 315.46582,186.999023 L315.02832,186.821289 L314.146484,186.472656 C313.198563,186.103514 312.601564,185.76172 312.355469,185.447266 C312.104816,185.137368 311.979492,184.759117 311.979492,184.3125 C311.979492,183.683591 312.222166,183.166343 312.70752,182.760742 C313.192874,182.355141 313.980138,182.152344 315.069336,182.152344 C315.885095,182.152344 316.657548,182.270832 317.386719,182.507812 L317.386719,183.663086 C316.548173,183.362303 315.759769,183.211914 315.021484,183.211914 C314.483721,183.211914 314.063315,183.306477 313.760254,183.495605 C313.457192,183.684734 313.305664,183.920572 313.305664,184.203125 C313.305664,184.476564 313.437824,184.695312 313.702148,184.859375 C313.961915,185.023438 314.385739,185.212564 314.973633,185.426758 L315.834961,185.741211 C316.623376,186.028322 317.177082,186.340493 317.496094,186.677734 C317.815106,187.014976 317.974609,187.436521 317.974609,187.942383 C317.974609,188.603193 317.720543,189.146645 317.212402,189.572754 C316.704262,189.998863 315.891933,190.211914 314.775391,190.211914 C313.800125,190.211914 312.797531,190.006838 311.767578,189.59668 Z M326.464844,189.692383 C325.867836,189.943035 325.434897,190.092285 325.166016,190.140137 C324.897134,190.187989 324.637371,190.211914 324.386719,190.211914 C323.853513,190.211914 323.365888,190.109376 322.923828,189.904297 C322.481769,189.699218 322.14795,189.396161 321.922363,188.995117 C321.696776,188.594074 321.583984,187.974288 321.583984,187.135742 L321.583984,184.05957 L319.676758,184.05957 L319.676758,183 L321.583984,183 L321.583984,179.923828 L322.855469,179.923828 L322.855469,183 L326.25293,183 L326.25293,184.05957 L322.855469,184.05957 L322.855469,187.115234 C322.855469,187.730472 322.928385,188.16455 323.074219,188.41748 C323.220053,188.670411 323.414875,188.856119 323.658691,188.974609 C323.902508,189.0931 324.190754,189.152344 324.523438,189.152344 C325.138675,189.152344 325.785804,188.958661 326.464844,188.571289 L326.464844,189.692383 Z M331.625977,190.211914 C330.532221,190.211914 329.65723,189.830245 329.000977,189.066895 C328.344723,188.303544 328.016602,187.340826 328.016602,186.178711 C328.016602,185.016596 328.344723,184.055017 329.000977,183.293945 C329.65723,182.532874 330.532221,182.152344 331.625977,182.152344 C332.715175,182.152344 333.587887,182.532874 334.244141,183.293945 C334.900394,184.055017 335.228516,185.016596 335.228516,186.178711 C335.228516,187.340826 334.900394,188.303544 334.244141,189.066895 C333.587887,189.830245 332.715175,190.211914 331.625977,190.211914 Z M331.625977,189.152344 C332.305016,189.152344 332.84505,188.888023 333.246094,188.359375 C333.647137,187.830727 333.847656,187.103846 333.847656,186.178711 C333.847656,185.258133 333.647137,184.533531 333.246094,184.004883 C332.84505,183.476234 332.305016,183.211914 331.625977,183.211914 C330.942379,183.211914 330.400067,183.476234 329.999023,184.004883 C329.59798,184.533531 329.397461,185.258133 329.397461,186.178711 C329.397461,187.103846 329.59798,187.830727 329.999023,188.359375 C330.400067,188.888023 330.942379,189.152344 331.625977,189.152344 Z M337.532227,190 L337.532227,182.364258 L338.803711,182.364258 L338.803711,184.032227 C339.200197,183.403317 339.654783,182.932782 340.16748,182.620605 C340.680178,182.308429 341.250973,182.152344 341.879883,182.152344 C342.340172,182.152344 342.800453,182.222981 343.260742,182.364258 L343.260742,185.119141 L342.037109,185.119141 L342.037109,183.375977 C341.822916,183.339518 341.654297,183.321289 341.53125,183.321289 C341.057289,183.321289 340.59245,183.508136 340.136719,183.881836 C339.680987,184.255536 339.236656,184.816077 338.803711,185.563477 L338.803711,190 L337.532227,190 Z M351.634766,189.494141 C350.618485,189.977216 349.656906,190.21875 348.75,190.21875 C348.061846,190.21875 347.446617,190.047853 346.904297,189.706055 C346.361976,189.364256 345.927899,188.875491 345.602051,188.239746 C345.276203,187.604001 345.113281,186.923832 345.113281,186.199219 C345.113281,185.50195 345.268228,184.832034 345.578125,184.189453 C345.888022,183.546872 346.320961,183.046714 346.876953,182.688965 C347.432945,182.331216 348.052731,182.152344 348.736328,182.152344 C349.643234,182.152344 350.371254,182.475908 350.92041,183.123047 C351.469567,183.770186 351.744141,184.768222 351.744141,186.117188 L351.744141,186.390625 L346.480469,186.390625 C346.480469,186.919273 346.590982,187.402342 346.812012,187.839844 C347.033041,188.277346 347.323566,188.605468 347.683594,188.824219 C348.043622,189.04297 348.453774,189.152344 348.914062,189.152344 C349.734379,189.152344 350.641271,188.878909 351.634766,188.332031 L351.634766,189.494141 Z M346.555664,185.44043 L350.363281,185.44043 L350.363281,185.255859 C350.363281,184.631507 350.210614,184.134767 349.905273,183.765625 C349.599933,183.396483 349.19206,183.211914 348.681641,183.211914 C348.166664,183.211914 347.721193,183.3999 347.345215,183.775879 C346.969236,184.151857 346.706055,184.706702 346.555664,185.44043 Z M194.05957,208 L194.05957,196.966797 L195.331055,196.966797 L195.331055,202.032227 C195.69564,201.444333 196.135414,200.984051 196.650391,200.651367 C197.165367,200.318683 197.680336,200.152344 198.195312,200.152344 C198.628257,200.152344 199.023598,200.262857 199.381348,200.483887 C199.739097,200.704916 199.988606,200.972655 200.129883,201.287109 C200.243816,201.528647 200.321289,201.784992 200.362305,202.056152 C200.403321,202.327313 200.423828,202.886715 200.423828,203.734375 L200.423828,208 L199.152344,208 L199.152344,203.577148 C199.152344,202.843421 199.117025,202.359213 199.046387,202.124512 C198.975748,201.88981 198.845867,201.697266 198.656738,201.546875 C198.46761,201.396484 198.261394,201.321289 198.038086,201.321289 C197.591469,201.321289 197.111819,201.533201 196.599121,201.957031 C196.086423,202.380861 195.663739,202.911781 195.331055,203.549805 L195.331055,208 L194.05957,208 Z M207.478516,206.28418 C207.091144,206.922204 206.625165,207.402993 206.080566,207.726562 C205.535967,208.050132 205.03581,208.211914 204.580078,208.211914 C203.942054,208.211914 203.36898,207.936201 202.86084,207.384766 C202.352699,206.833331 202.098633,205.997076 202.098633,204.875977 C202.098633,203.991858 202.267251,203.202315 202.604492,202.507324 C202.941733,201.812334 203.392901,201.263186 203.958008,200.859863 C204.523115,200.456541 205.222652,200.254883 206.056641,200.254883 C206.298178,200.254883 206.662758,200.279948 207.150391,200.330078 C207.223308,200.339193 207.332682,200.350586 207.478516,200.364258 L208.756836,200.364258 L208.756836,205.757812 C208.756836,206.67839 208.852538,207.425778 209.043945,208 L207.717773,208 C207.617513,207.580727 207.537761,207.008793 207.478516,206.28418 Z M207.478516,204.773438 L207.478516,201.499023 C207.027341,201.380533 206.608075,201.321289 206.220703,201.321289 C205.436845,201.321289 204.78402,201.624346 204.262207,202.230469 C203.740395,202.836592 203.479492,203.661453 203.479492,204.705078 C203.479492,205.461592 203.621906,206.032387 203.906738,206.41748 C204.19157,206.802574 204.516274,206.995117 204.880859,206.995117 C205.277346,206.995117 205.714841,206.794598 206.193359,206.393555 C206.671877,205.992511 207.100259,205.452477 207.478516,204.773438 Z M210.951172,207.59668 L210.951172,206.25 C211.461591,206.582684 212.001625,206.816243 212.571289,206.950684 C213.140953,207.085124 213.624021,207.152344 214.020508,207.152344 C214.663089,207.152344 215.12565,207.048666 215.408203,206.841309 C215.690757,206.633951 215.832031,206.375327 215.832031,206.06543 C215.832031,205.860351 215.765951,205.684897 215.633789,205.539062 C215.501627,205.393228 215.173505,205.213217 214.649414,204.999023 L214.211914,204.821289 L213.330078,204.472656 C212.382157,204.103514 211.785157,203.76172 211.539062,203.447266 C211.28841,203.137368 211.163086,202.759117 211.163086,202.3125 C211.163086,201.683591 211.405759,201.166343 211.891113,200.760742 C212.376467,200.355141 213.163732,200.152344 214.25293,200.152344 C215.068689,200.152344 215.841142,200.270832 216.570312,200.507812 L216.570312,201.663086 C215.731767,201.362303 214.943363,201.211914 214.205078,201.211914 C213.667315,201.211914 213.246909,201.306477 212.943848,201.495605 C212.640786,201.684734 212.489258,201.920572 212.489258,202.203125 C212.489258,202.476564 212.621418,202.695312 212.885742,202.859375 C213.145509,203.023438 213.569333,203.212564 214.157227,203.426758 L215.018555,203.741211 C215.80697,204.028322 216.360675,204.340493 216.679688,204.677734 C216.9987,205.014976 217.158203,205.436521 217.158203,205.942383 C217.158203,206.603193 216.904137,207.146645 216.395996,207.572754 C215.887856,207.998863 215.075526,208.211914 213.958984,208.211914 C212.983719,208.211914 211.981125,208.006838 210.951172,207.59668 Z M228.84082,202.080078 C229.232749,201.442054 229.699867,200.961265 230.242188,200.637695 C230.784508,200.314126 231.283526,200.152344 231.739258,200.152344 C232.377282,200.152344 232.951495,200.428057 233.461914,200.979492 C233.972333,201.530927 234.227539,202.367182 234.227539,203.488281 C234.227539,204.3724 234.057782,205.161943 233.718262,205.856934 C233.378742,206.551924 232.926435,207.101072 232.361328,207.504395 C231.796221,207.907717 231.096684,208.109375 230.262695,208.109375 C230.025715,208.109375 229.661135,208.08431 229.168945,208.03418 C229.096028,208.025065 228.986654,208.013672 228.84082,208 L228.84082,210.966797 L227.569336,210.966797 L227.569336,200.364258 L228.84082,200.364258 L228.84082,202.080078 Z M228.84082,203.59082 L228.84082,206.865234 C229.301109,206.983725 229.724933,207.042969 230.112305,207.042969 C230.882491,207.042969 231.530759,206.741051 232.057129,206.137207 C232.583499,205.533363 232.84668,204.707362 232.84668,203.65918 C232.84668,202.898108 232.703126,202.326174 232.416016,201.943359 C232.128905,201.560545 231.803062,201.369141 231.438477,201.369141 C231.04199,201.369141 230.605634,201.569659 230.129395,201.970703 C229.653155,202.371747 229.223635,202.91178 228.84082,203.59082 Z M241.083984,206.28418 C240.696613,206.922204 240.230634,207.402993 239.686035,207.726562 C239.141436,208.050132 238.641278,208.211914 238.185547,208.211914 C237.547523,208.211914 236.974449,207.936201 236.466309,207.384766 C235.958168,206.833331 235.704102,205.997076 235.704102,204.875977 C235.704102,203.991858 235.87272,203.202315 236.209961,202.507324 C236.547202,201.812334 236.99837,201.263186 237.563477,200.859863 C238.128584,200.456541 238.828121,200.254883 239.662109,200.254883 C239.903647,200.254883 240.268227,200.279948 240.755859,200.330078 C240.828776,200.339193 240.93815,200.350586 241.083984,200.364258 L242.362305,200.364258 L242.362305,205.757812 C242.362305,206.67839 242.458007,207.425778 242.649414,208 L241.323242,208 C241.222981,207.580727 241.143229,207.008793 241.083984,206.28418 Z M241.083984,204.773438 L241.083984,201.499023 C240.63281,201.380533 240.213544,201.321289 239.826172,201.321289 C239.042314,201.321289 238.389488,201.624346 237.867676,202.230469 C237.345863,202.836592 237.084961,203.661453 237.084961,204.705078 C237.084961,205.461592 237.227375,206.032387 237.512207,206.41748 C237.797039,206.802574 238.121743,206.995117 238.486328,206.995117 C238.882814,206.995117 239.32031,206.794598 239.798828,206.393555 C240.277346,205.992511 240.705727,205.452477 241.083984,204.773438 Z M250.852539,207.692383 C250.255531,207.943035 249.822592,208.092285 249.553711,208.140137 C249.284829,208.187989 249.025066,208.211914 248.774414,208.211914 C248.241208,208.211914 247.753583,208.109376 247.311523,207.904297 C246.869464,207.699218 246.535646,207.396161 246.310059,206.995117 C246.084472,206.594074 245.97168,205.974288 245.97168,205.135742 L245.97168,202.05957 L244.064453,202.05957 L244.064453,201 L245.97168,201 L245.97168,197.923828 L247.243164,197.923828 L247.243164,201 L250.640625,201 L250.640625,202.05957 L247.243164,202.05957 L247.243164,205.115234 C247.243164,205.730472 247.31608,206.16455 247.461914,206.41748 C247.607748,206.670411 247.80257,206.856119 248.046387,206.974609 C248.290203,207.0931 248.578449,207.152344 248.911133,207.152344 C249.52637,207.152344 250.173499,206.958661 250.852539,206.571289 L250.852539,207.692383 Z M252.869141,208 L252.869141,196.966797 L254.140625,196.966797 L254.140625,202.032227 C254.50521,201.444333 254.944984,200.984051 255.459961,200.651367 C255.974937,200.318683 256.489906,200.152344 257.004883,200.152344 C257.437828,200.152344 257.833169,200.262857 258.190918,200.483887 C258.548667,200.704916 258.798176,200.972655 258.939453,201.287109 C259.053386,201.528647 259.130859,201.784992 259.171875,202.056152 C259.212891,202.327313 259.233398,202.886715 259.233398,203.734375 L259.233398,208 L257.961914,208 L257.961914,203.577148 C257.961914,202.843421 257.926595,202.359213 257.855957,202.124512 C257.785319,201.88981 257.655437,201.697266 257.466309,201.546875 C257.27718,201.396484 257.070965,201.321289 256.847656,201.321289 C256.401039,201.321289 255.921389,201.533201 255.408691,201.957031 C254.895994,202.380861 254.473309,202.911781 254.140625,203.549805 L254.140625,208 L252.869141,208 Z" id="whilehistorystorehaspath" fill="#333333" fill-rule="nonzero"></path>
      </g>
    </g>
  </g>
</svg>
