<svg width="375px" height="121px" viewBox="0 0 375 121" version="1.1" xmlns="http://www.w3.org/2000/svg" xmlns:xlink="http://www.w3.org/1999/xlink">
  <g id="Page-4" stroke="none" stroke-width="1" fill="none" fill-rule="evenodd">
    <g id="iPhone-8" fill="#CB2D6F" fill-rule="nonzero">
      <g id="npm-logo">
        <path d="M115.384615,120.192308 L163.461538,120.192308 L163.461538,96.1538462 L211.538462,96.1538462 L211.538462,0 L115.384615,0 L115.384615,120.192308 Z M163.461538,24.0384615 L187.5,24.0384615 L187.5,72.1153846 L163.461538,72.1153846 L163.461538,24.0384615 Z M230.769231,0 L230.769231,96.1538462 L278.846154,96.1538462 L278.846154,24.0384615 L302.884615,24.0384615 L302.884615,96.1538462 L326.923077,96.1538462 L326.923077,24.0384615 L350.961538,24.0384615 L350.961538,96.1538462 L375,96.1538462 L375,0 L230.769231,0 Z M0,96.1538462 L48.0769231,96.1538462 L48.0769231,24.0384615 L72.1153846,24.0384615 L72.1153846,96.1538462 L96.1538462,96.1538462 L96.1538462,0 L0,0 L0,96.1538462 Z" id="Shape"></path>
      </g>
    </g>
  </g>
</svg>
